<?xml version="1.0" encoding="UTF-8" standalone="no"?>
<svg
   xmlns:dc="http://purl.org/dc/elements/1.1/"
   xmlns:cc="http://creativecommons.org/ns#"
   xmlns:rdf="http://www.w3.org/1999/02/22-rdf-syntax-ns#"
   xmlns:svg="http://www.w3.org/2000/svg"
   xmlns="http://www.w3.org/2000/svg"
   xmlns:xlink="http://www.w3.org/1999/xlink"
   xmlns:sodipodi="http://sodipodi.sourceforge.net/DTD/sodipodi-0.dtd"
   xmlns:inkscape="http://www.inkscape.org/namespaces/inkscape"
   version="1.1"
   preserveAspectRatio="xMidYMid meet"
   viewBox="0 0 2310.1067 427.87732"
   width="2310.1067"
   height="427.87732"
   id="svg68"
   sodipodi:docname="logo.svg"
   inkscape:export-xdpi="96"
   inkscape:export-ydpi="96"
   inkscape:version="1.0.2 (e86c870879, 2021-01-15, custom)"
  <metadata
     id="metadata72">
    <rdf:RDF>
      <cc:Work
         rdf:about="">
        <dc:format>image/svg+xml</dc:format>
        <dc:type
           rdf:resource="http://purl.org/dc/dcmitype/StillImage" />
        <dc:title></dc:title>
      </cc:Work>
    </rdf:RDF>
  </metadata>
  <sodipodi:namedview
     pagecolor="#ffffff"
     bordercolor="#666666"
     borderopacity="1"
     objecttolerance="10"
     gridtolerance="10"
     guidetolerance="10"
     inkscape:pageopacity="0"
     inkscape:pageshadow="2"
     inkscape:window-width="1920"
     inkscape:window-height="1051"
     id="namedview70"
     showgrid="false"
     inkscape:snap-nodes="true"
     inkscape:snap-grids="true"
     inkscape:snap-to-guides="true"
     inkscape:snap-page="false"
     inkscape:zoom="1.0718559"
     inkscape:cx="604.88857"
     inkscape:cy="257.23035"
     inkscape:window-x="-9"
     inkscape:window-y="-9"
     inkscape:window-maximized="1"
     inkscape:current-layer="svg68"
     inkscape:document-rotation="0" />
  <defs
     id="defs46">
    <path
       d="M 200,100 C 200,155.19 155.19,200 100,200 44.81,200 0,155.19 0,100 0,44.81 44.81,0 100,0 155.19,0 200,44.81 200,100 Z"
       id="dhZYd15Vf" />
    <path
       d="M 430,100 C 430,155.19 385.19,200 330,200 274.81,200 230,155.19 230,100 230,44.81 274.81,0 330,0 385.19,0 430,44.81 430,100 Z"
       id="b1PqPKiPLd" />
    <path
       d="M 200,329.29 C 200,384.95 155.19,430.14 100,430.14 44.81,430.14 0,384.95 0,329.29 0,273.63 44.81,228.44 100,228.44 c 55.19,0 100,45.19 100,100.85 z"
       id="b6XTrNc4C" />
    <path
       d="m 430,329.29 c 0,55.66 -44.81,100.85 -100,100.85 -55.19,0 -100,-45.19 -100,-100.85 0,-55.66 44.81,-100.85 100,-100.85 55.19,0 100,45.19 100,100.85 z"
       id="b43uDuMcAs" />
  </defs>
  <g
     id="g66"
     transform="scale(0.99473969)">
    <g
       id="g64">
      <g
         id="g50">
        <use
           xlink:href="#dhZYd15Vf"
           opacity="1"
           fill="#00a8a8"
           fill-opacity="1"
           id="use48"
           x="0"
           y="0"
           width="100%"
           height="100%" />
      </g>
      <g
         id="g54">
        <use
           xlink:href="#b1PqPKiPLd"
           opacity="1"
           fill="#cb4335"
           fill-opacity="1"
           id="use52"
           x="0"
           y="0"
           width="100%"
           height="100%" />
      </g>
      <g
         id="g58">
        <use
           xlink:href="#b6XTrNc4C"
           opacity="1"
           fill="#c6c6c6"
           fill-opacity="1"
           id="use56"
           x="0"
           y="0"
           width="100%"
           height="100%" />
      </g>
      <g
         id="g62">
        <use
           xlink:href="#b43uDuMcAs"
           opacity="1"
           fill="#229954"
           fill-opacity="1"
           id="use60"
           x="0"
           y="0"
           width="100%"
           height="100%" />
      </g>
    </g>
  </g>
  <g
     aria-label="Darkstone"
     id="text84"
     style="font-weight:bold;font-size:359.051px;line-height:1.25;font-family:Inter;-inkscape-font-specification:'Inter Bold';fill:#ffffff;fill-opacity:1;stroke-width:1.07715"
     transform="translate(-1.8659225,-1.0613349)">
    <path
       id="path66"
       style="fill:#ffffff;fill-opacity:1;stroke-width:1.07715"
       sodipodi:type="inkscape:offset"
       inkscape:radius="0"
       inkscape:original="M 526.02734 82.523438 L 526.02734 343.65234 L 618.5957 343.65234 C 698.15814 343.65234 746.35352 294.43453 746.35352 212.83203 C 746.35352 131.48454 698.15875 82.523438 619.36133 82.523438 L 526.02734 82.523438 z M 1141.2344 82.523438 L 1141.2344 343.65234 L 1195.5508 343.65234 L 1195.5508 281.42969 L 1210.2129 264.72656 L 1263.6367 343.65234 L 1327.2617 343.65234 L 1250.8867 232.5957 L 1323.5645 147.80469 L 1261.2148 147.80469 L 1198.4824 222.14062 L 1195.5508 222.14062 L 1195.5508 82.523438 L 1141.2344 82.523438 z M 1564.8008 100.88477 L 1564.8008 147.80469 L 1538.0254 147.80469 L 1538.0254 188.60742 L 1564.8008 188.60742 L 1564.8008 290.60938 C 1564.5458 328.98805 1590.6833 347.98568 1630.082 346.32812 C 1644.1074 345.81811 1654.0525 343.01358 1659.5352 341.22852 L 1650.9941 300.81055 C 1648.3165 301.32056 1642.5787 302.5957 1637.4785 302.5957 C 1626.6407 302.5957 1619.1172 298.51421 1619.1172 283.46875 L 1619.1172 188.60742 L 1655.9668 188.60742 L 1655.9668 147.80469 L 1619.1172 147.80469 L 1619.1172 100.88477 L 1564.8008 100.88477 z M 581.23633 129.82812 L 616.42773 129.82812 C 665.38923 129.82812 691.27344 154.81776 691.27344 212.83203 C 691.27344 271.10132 665.38978 296.34766 616.30078 296.34766 L 581.23633 296.34766 L 581.23633 129.82812 z M 1096.2246 145 C 1074.2939 145 1056.316 157.75082 1049.1758 181.97656 L 1047.1367 181.97656 L 1047.1367 147.80469 L 994.47656 147.80469 L 994.47656 343.65234 L 1048.793 343.65234 L 1048.793 232.84961 C 1048.793 208.75137 1066.3887 192.17773 1090.3594 192.17773 C 1097.8821 192.17773 1108.2103 193.45182 1113.3105 195.10938 L 1113.3105 146.91211 C 1108.4653 145.76458 1101.7072 145 1096.2246 145 z M 869.14062 145.25586 C 822.2192 145.25586 791.36257 167.69539 783.83984 203.39648 L 834.07617 207.47656 C 837.77378 194.47116 849.37667 184.9082 868.88477 184.9082 C 887.37283 184.9082 897.95703 194.21771 897.95703 210.2832 L 897.95703 211.04688 C 897.95703 223.66976 884.56894 225.32747 850.52539 228.64258 C 811.76421 232.21269 776.95508 245.21928 776.95508 288.95312 C 776.95508 327.71431 804.62378 347.34961 841.98242 347.34961 C 870.92581 347.34961 889.66768 334.72524 899.23047 316.49219 L 900.76172 316.49219 L 900.76172 343.65234 L 952.27344 343.65234 L 952.27344 211.55664 C 952.27344 164.89021 912.74697 145.25586 869.14062 145.25586 z M 1429.6465 145.25586 C 1379.5374 145.25586 1346.5151 168.46197 1346.6426 206.20312 C 1346.5151 235.52902 1365.0028 254.52555 1403.2539 262.17578 L 1437.1699 268.93359 C 1454.2554 272.3762 1462.032 278.62361 1462.2871 288.44141 C 1462.032 300.04426 1449.4102 308.33203 1430.4121 308.33203 C 1411.0315 308.33203 1398.153 300.04541 1394.8379 284.10742 L 1341.4141 286.91211 C 1346.5142 324.39826 1378.3911 347.47656 1430.2852 347.47656 C 1481.0317 347.47656 1517.3686 321.59266 1517.4961 282.95898 C 1517.3686 254.65311 1498.881 237.6957 1460.8848 229.91797 L 1425.4395 222.77734 C 1407.2065 218.82472 1400.4487 212.57786 1400.5762 203.14258 C 1400.4487 191.41222 1413.7086 183.76172 1430.5391 183.76172 C 1449.4097 183.76172 1460.631 194.09001 1463.3086 206.71289 L 1513.0352 203.65234 C 1508.1901 167.56874 1479.118 145.25586 1429.6465 145.25586 z M 1777.7305 145.25586 C 1718.3136 145.25586 1681.3379 185.80228 1681.3379 246.49414 C 1681.3379 306.80349 1718.3136 347.47656 1777.7305 347.47656 C 1837.1473 347.47656 1874.125 306.80349 1874.125 246.49414 C 1874.125 185.80228 1837.1473 145.25586 1777.7305 145.25586 z M 2022.5391 145.25586 C 1993.4682 145.25586 1972.4305 159.53617 1963.6328 182.35938 L 1961.3359 182.35938 L 1961.3359 147.80469 L 1909.5703 147.80469 L 1909.5703 343.65234 L 1963.8867 343.65234 L 1963.8867 230.42773 C 1964.0142 205.18196 1979.0595 190.39258 2000.9902 190.39258 C 2022.7934 190.39258 2035.9263 204.67184 2035.7988 228.64258 L 2035.7988 343.65234 L 2090.1152 343.65234 L 2090.1152 218.95312 C 2090.1152 173.30673 2063.3403 145.25586 2022.5391 145.25586 z M 2219.9141 145.25586 C 2162.2824 145.25586 2124.9238 186.18424 2124.9238 246.62109 C 2124.9238 308.71549 2161.7726 347.47656 2222.082 347.47656 C 2270.5335 347.47656 2303.174 323.88744 2310.8242 287.54883 L 2260.5879 284.23438 C 2255.1052 299.15233 2241.0802 306.92969 2222.9746 306.92969 C 2195.8163 306.92969 2178.6035 288.9523 2178.6035 259.75391 L 2178.6035 259.62695 L 2311.9727 259.62695 L 2311.9727 244.70898 C 2311.9727 178.15194 2271.6807 145.25586 2219.9141 145.25586 z M 2220.8066 185.80078 C 2244.3949 185.80078 2260.7162 202.63163 2260.8438 225.96484 L 2178.6035 225.96484 C 2179.751 203.65166 2196.7084 185.80078 2220.8066 185.80078 z M 1777.9863 186.69336 C 1804.8896 186.69336 1818.916 211.94028 1818.916 246.11133 C 1818.916 280.28238 1804.8896 305.40039 1777.9863 305.40039 C 1750.5729 305.40039 1736.5469 280.28238 1736.5469 246.11133 C 1736.5469 211.94028 1750.5729 186.69336 1777.9863 186.69336 z M 898.33984 252.86914 L 898.33984 273.65234 C 898.33984 294.18047 881.38034 309.86328 857.53711 309.86328 C 840.8341 309.86328 828.84961 302.08593 828.84961 287.16797 C 828.84961 271.8675 841.47208 264.3436 860.59766 261.66602 C 872.45552 260.00847 891.83714 257.20427 898.33984 252.86914 z "
       d="M 526.02734,82.523438 V 343.65234 h 92.56836 c 79.56244,0 127.75782,-49.21781 127.75782,-130.82031 0,-81.34749 -48.19477,-130.308592 -126.99219,-130.308592 z m 615.20706,0 V 343.65234 h 54.3164 v -62.22265 l 14.6621,-16.70313 53.4238,78.92578 h 63.625 l -76.375,-111.05664 72.6778,-84.79101 h -62.3497 l -62.7324,74.33593 h -2.9316 V 82.523438 Z m 423.5664,18.361332 v 46.91992 h -26.7754 v 40.80273 h 26.7754 v 102.00196 c -0.255,38.37867 25.8825,57.3763 65.2812,55.71874 14.0254,-0.51001 23.9705,-3.31454 29.4532,-5.0996 l -8.5411,-40.41797 c -2.6776,0.51001 -8.4154,1.78515 -13.5156,1.78515 -10.8378,0 -18.3613,-4.08149 -18.3613,-19.12695 v -94.86133 h 36.8496 v -40.80273 h -36.8496 v -46.91992 z m -983.56447,28.94335 h 35.1914 c 48.9615,0 74.84571,24.98964 74.84571,83.00391 0,58.26929 -25.88366,83.51563 -74.97266,83.51563 H 581.23633 Z M 1096.2246,145 c -21.9307,0 -39.9086,12.75082 -47.0488,36.97656 h -2.0391 V 147.80469 H 994.47656 V 343.65234 H 1048.793 V 232.84961 c 0,-24.09824 17.5957,-40.67188 41.5664,-40.67188 7.5227,0 17.8509,1.27409 22.9511,2.93165 V 146.91211 C 1108.4653,145.76458 1101.7072,145 1096.2246,145 Z m -227.08398,0.25586 c -46.92142,0 -77.77805,22.43953 -85.30078,58.14062 l 50.23633,4.08008 c 3.69761,-13.0054 15.3005,-22.56836 34.8086,-22.56836 18.48806,0 29.07226,9.30951 29.07226,25.375 v 0.76368 c 0,12.62288 -13.38809,14.28059 -47.43164,17.5957 -38.76118,3.57011 -73.57031,16.5767 -73.57031,60.31054 0,38.76119 27.6687,58.39649 65.02734,58.39649 28.94339,0 47.68526,-12.62437 57.24805,-30.85742 h 1.53125 v 27.16015 h 51.51172 v -132.0957 c 0,-46.66643 -39.52647,-66.30078 -83.13282,-66.30078 z m 560.50588,0 c -50.1091,0 -83.1314,23.20611 -83.0039,60.94726 -0.1275,29.3259 18.3602,48.32243 56.6113,55.97266 l 33.916,6.75781 c 17.0855,3.44261 24.8621,9.69002 25.1172,19.50782 -0.2551,11.60285 -12.8769,19.89062 -31.875,19.89062 -19.3806,0 -32.2591,-8.28662 -35.5742,-24.22461 l -53.4238,2.80469 c 5.1001,37.48615 36.977,60.56445 88.8711,60.56445 50.7465,0 87.0834,-25.8839 87.2109,-64.51758 -0.1275,-28.30587 -18.6151,-45.26328 -56.6113,-53.04101 l -35.4453,-7.14063 c -18.233,-3.95262 -24.9908,-10.19948 -24.8633,-19.63476 -0.1275,-11.73036 13.1324,-19.38086 29.9629,-19.38086 18.8706,0 30.0919,10.32829 32.7695,22.95117 l 49.7266,-3.06055 c -4.8451,-36.0836 -33.9172,-58.39648 -83.3887,-58.39648 z m 348.084,0 c -59.4169,0 -96.3926,40.54642 -96.3926,101.23828 0,60.30935 36.9757,100.98242 96.3926,100.98242 59.4168,0 96.3945,-40.67307 96.3945,-100.98242 0,-60.69186 -36.9777,-101.23828 -96.3945,-101.23828 z m 244.8086,0 c -29.0709,0 -50.1086,14.28031 -58.9063,37.10352 h -2.2969 v -34.55469 h -51.7656 v 195.84765 h 54.3164 V 230.42773 c 0.1275,-25.24577 15.1728,-40.03515 37.1035,-40.03515 21.8032,0 34.9361,14.27926 34.8086,38.25 v 115.00976 h 54.3164 V 218.95312 c 0,-45.64639 -26.7749,-73.69726 -67.5761,-73.69726 z m 197.375,0 c -57.6317,0 -94.9903,40.92838 -94.9903,101.36523 0,62.0944 36.8488,100.85547 97.1582,100.85547 48.4515,0 81.092,-23.58912 88.7422,-59.92773 l -50.2363,-3.31445 c -5.4827,14.91795 -19.5077,22.69531 -37.6133,22.69531 -27.1583,0 -44.3711,-17.97739 -44.3711,-47.17578 v -0.12696 h 133.3692 v -14.91797 c 0,-66.55704 -40.292,-99.45312 -92.0586,-99.45312 z m 0.8925,40.54492 c 23.5883,0 39.9096,16.83085 40.0372,40.16406 h -82.2403 c 1.1475,-22.31318 18.1049,-40.16406 42.2031,-40.16406 z m -442.8203,0.89258 c 26.9033,0 40.9297,25.24692 40.9297,59.41797 0,34.17105 -14.0264,59.28906 -40.9297,59.28906 -27.4134,0 -41.4394,-25.11801 -41.4394,-59.28906 0,-34.17105 14.026,-59.41797 41.4394,-59.41797 z m -879.64646,66.17578 v 20.7832 c 0,20.52813 -16.9595,36.21094 -40.80273,36.21094 -16.70301,0 -28.6875,-7.77735 -28.6875,-22.69531 0,-15.30047 12.62247,-22.82437 31.74805,-25.50195 11.85786,-1.65755 31.23948,-4.46175 37.74218,-8.79688 z" />
  </g>
</svg>
